#!OML:ASF \\sashay\E\basketball\basketball\Project 1\Capture day 1\Session 1\Subject.ASF
:FULLY-SPECIFIED
:DEGREES
32
root -19.2831 14.4676 4.54009 -8.59675 -9.78875 1.44247
lowerback 29.8172 -3.09486 -10.7548
upperback 9.70337 -7.03781 0.554642
thorax -3.84948 -3.70753 8.95956
lowerneck 12.3107 -23.9939 -7.13226
upperneck -37.4675 -26.4759 42.8498
head -5.25365 -18.1436 17.0512
rclavicle -2.10712e-014 -1.35174e-014
rhumerus -2.78465 -30.6373 -55.1598
rradius 48.985
rwrist -15.1011
rhand 10.236 15.4133
rfingers 7.12502
rthumb 35.3502 -11.0603
lclavicle -2.10712e-014 -1.35174e-014
lhumerus -57.2722 -11.6454 128.952
lradius 28.1288
lwrist 18.031
lhand -10.9576 16.4594
lfingers 7.12502
lthumb 15.0614 45.8915
rfemur -51.111 -17.9598 14.1397
rtibia 90.945
rfoot -12.4472 -8.39046
rtoes -33.3353
lfemur -39.2437 19.2733 -15.7682
ltibia 82.7644
lfoot -2.77763 5.61691
ltoes -24.5853
33
root -18.767 14.4493 4.41817 -8.87431 -12.9433 1.74353
lowerback 29.8091 -3.28391 -10.1392
upperback 9.66441 -7.11066 0.937664
thorax -3.90824 -3.75059 9.06939
lowerneck 10.4097 -24.9637 -8.33206
upperneck -36.1114 -28.3021 43.8505
head -3.55819 -18.8713 16.1613
rclavicle 1.59028e-015 9.54166e-015
rhumerus -1.73109 -31.0441 -56.7777
rradius 50.1747
rwrist -14.028
rhand 8.11223 15.8559
rfingers 7.12502
rthumb 33.3337 -11.0733
lclavicle 1.59028e-015 9.54166e-015
lhumerus -57.6193 -12.343 129.57
lradius 28.7781
lwrist 18.3514
lhand -10.7109 16.8696
lfingers 7.12502
lthumb 15.2989 46.2837
rfemur -51.0725 -17.7126 14.2234
rtibia 92.4832
rfoot -12.198 -8.70758
rtoes -32.4487
lfemur -37.4904 16.8146 -13.5471
ltibia 80.5614
lfoot -3.66072 3.52967
ltoes -18.7882
34
root -18.2596 14.4114 4.31104 -9.04733 -16.0454 1.86376
lowerback 29.6324 -3.44386 -9.16488
upperback 9.61891 -7.02342 1.39791
thorax -3.96995 -3.70997 9.00135
lowerneck 9.44722 -24.4179 -8.56653
upperneck -35.2695 -27.7301 43.2755
head -3.37735 -18.392 15.8526
rclavicle 4.00551e-014 -3.47873e-014
rhumerus -0.894329 -31.4826 -58.2426
rradius 51.2935
rwrist -12.4236
rhand 5.42417 16.528
rfingers 7.12502
rthumb 30.7745 -10.9162
lclavicle 4.00551e-014 -3.47873e-014
lhumerus -58.2903 -13.4202 130.148
lradius 30.0017
lwrist 19.1821
lhand -9.51781 18.2522
lfingers 7.12502
lthumb 16.4479 47.575
rfemur -50.1509 -17.7796 14.4269
rtibia 93.7721
rfoot -12.205 -9.69002
rtoes -34.4843
lfemur -35.7829 13.9423 -11.3763
ltibia 78.3786
lfoot -4.32541 1.26381
ltoes -13.4514
35
root -17.7492 14.4035 4.21272 -9.10918 -19.1205 2.11997
lowerback 29.3107 -3.56966 -8.08281
upperback 9.53009 -6.85649 1.83319
thorax -4.04464 -3.6236 8.80667
lowerneck 9.41675 -23.849 -7.92141
upperneck -36.1552 -26.6548 42.7308
head -4.16112 -17.9423 16.1323
rclavicle -1.43349e-013 1.06921e-013
rhumerus -0.141148 -31.9047 -59.7683
rradius 52.2655
rwrist -10.2575
rhand 1.86078 18.0891
rfingers 7.12502
rthumb 27.3714 -9.94322
lclavicle -1.43349e-013 1.06921e-013
lhumerus -58.0308 -13.687 129.664
lradius 29.7566
lwrist 17.6531
lhand -9.26255 16.7541
lfingers 7.12502
lthumb 16.6937 46.0563
rfemur -49.2442 -18.2104 14.4287
rtibia 94.8606
rfoot -11.9293 -10.6581
rtoes -36.5751
lfemur -34.3857 11.3227 -9.94922
ltibia 76.0808
lfoot -4.50002 -0.905906
ltoes -21.1169
36
root -17.225 14.3555 4.12862 -9.24471 -22.3689 2.97016
lowerback 28.8945 -3.46822 -7.33542
upperback 9.30859 -6.49822 2.18925
thorax -4.22299 -3.4329 8.65797
lowerneck 10.7641 -23.4359 -7.55016
upperneck -38.4924 -25.5545 43.0568
head -5.40206 -17.7508 17.261
rclavicle -3.46879e-014 1.23246e-014
rhumerus 0.239559 -32.0876 -61.0964
rradius 53.2075
rwrist -7.60936
rhand -2.2072 20.6444
rfingers 7.12502
rthumb 23.4746 -7.94343
lclavicle -3.46879e-014 1.23246e-014
lhumerus -57.7656 -14.0944 129.014
lradius 29.4507
lwrist 15.5684
lhand -7.31898 17.351
lfingers 7.12502
lthumb 18.564 46.4851
rfemur -49.1227 -18.799 13.5922
rtibia 96.3666
rfoot -11.8355 -10.4768
rtoes -35.7545
lfemur -32.9853 7.45704 -9.41801
ltibia 73.8861
lfoot -4.71824 -2.25326
ltoes -19.1077
37
root -16.688 14.3304 4.05774 -9.46224 -25.6273 4.35694
lowerback 28.3574 -3.29686 -6.6462
upperback 9.04626 -6.06828 2.42735
thorax -4.40413 -3.20252 8.37792
lowerneck 10.4226 -23.6435 -7.83782
upperneck -39.0125 -25.8221 42.9869
head -5.38785 -17.8625 17.1866
rclavicle -3.83654e-014 3.33958e-014
rhumerus 0.862779 -31.9313 -62.361
rradius 53.5651
rwrist -4.36543
rhand -6.8853 23.0639
rfingers 7.12502
rthumb 18.9811 -6.02999
lclavicle -3.83654e-014 3.33958e-014
lhumerus -57.1435 -14.5767 128.138
lradius 29.0566
lwrist 12.2443
lhand -4.51845 20.8508
lfingers 7.12502
lthumb 21.256 49.7052
rfemur -48.8313 -19.6724 12.0659
rtibia 97.5761
rfoot -11.2079 -10.564
rtoes -37.761
lfemur -32.0085 4.60427 -9.90555
ltibia 71.6707
lfoot -5.7301 -4.30694
ltoes -31.8777
38
root -16.1756 14.3085 3.99731 -9.5738 -29.1178 5.0942
lowerback 27.843 -3.10666 -5.51173
upperback 8.8097 -5.49116 2.83565
thorax -4.60926 -2.90161 7.99166
lowerneck 9.61962 -23.7954 -7.7351
upperneck -38.9879 -26.0854 42.2139
head -5.36724 -17.8393 16.6828
rclavicle 5.1684e-015 -2.38542e-015
rhumerus 1.73167 -31.2434 -63.6102
rradius 52.935
rwrist -0.978857
rhand -12.4434 25.3822
rfingers 7.12502
rthumb 13.6297 -4.15154
lclavicle 5.1684e-015 -2.38542e-015
lhumerus -55.9993 -13.8341 125.968
lradius 28.0893
lwrist 6.4613
lhand -2.66123 20.2255
lfingers 7.12502
lthumb 23.0391 48.8684
rfemur -48.1483 -20.3126 11.1845
rtibia 98.637
rfoot -10.9716 -10.7295
rtoes -38.3557
lfemur -30.9291 2.30186 -9.50444
ltibia 69.6286
lfoot -7.06695 -7.81472
ltoes -36.6694
39
root -15.6543 14.2591 3.95181 -9.80154 -32.7781 5.98783
lowerback 27.3954 -2.85096 -4.24263
upperback 8.54624 -4.80846 3.17539
thorax -4.89241 -2.54486 7.42514
lowerneck 10.178 -23.4253 -7.12436
upperneck -40.4016 -25.3013 41.5674
head -6.39579 -17.5408 17.1059
rclavicle 6.48038e-014 1.35174e-014
rhumerus 2.66102 -30.431 -64.7591
rradius 51.4681
rwrist 1.98483
rhand -17.4563 28.5115
rfingers 7.12502
rthumb 8.79499 -1.28522
lclavicle 6.48038e-014 1.35174e-014
lhumerus -54.1471 -11.406 121.773
lradius 26.8123
lwrist -0.350608
lhand 1.64816 20.3432
lfingers 7.12502
lthumb 27.1681 48.4074
rfemur -47.4586 -20.9326 9.90745
rtibia 99.7476
rfoot -10.9501 -10.4811
rtoes -37.4372
lfemur -30.0377 1.01017 -9.53162
ltibia 67.822
lfoot -9.42848 -11.3467
ltoes -43.1351
40
root -15.1376 14.2039 3.91602 -10.2577 -36.6035 7.40629
lowerback 26.8689 -2.44059 -3.1786
upperback 8.23396 -3.99464 3.33434
thorax -5.18086 -2.12526 6.72925
lowerneck 7.19898 -24.0714 -7.86018
upperneck -37.4015 -26.9134 40.0286
head -4.72384 -17.6713 15.0383
rclavicle -1.05753e-013 -7.95139e-015
rhumerus 3.44809 -29.6665 -65.8401
rradius 49.3643
rwrist 4.24304
rhand -20.901 31.8359
rfingers 7.12502
rthumb 5.4699 1.92654
lclavicle -1.05753e-013 -7.95139e-015
lhumerus -52.4223 -8.36212 116.866
lradius 25.965
lwrist -8.20779
lhand 6.55048 20.8165
lfingers 7.12502
lthumb 31.8477 48.0529
rfemur -46.772 -21.4174 8.06239
rtibia 100.801
rfoot -10.8454 -10.1661
rtoes -37.2979
lfemur -29.5486 0.748846 -10.3223
ltibia 66.1884
lfoot -14.0695 -13.4581
ltoes -51.0109
41
root -14.6466 14.1438 3.88029 -11.1557 -40.5007 9.26796
lowerback 26.4354 -1.80829 -2.59068
upperback 7.93252 -3.02425 3.48113
thorax -5.46052 -1.63793 6.25491
lowerneck 6.93113 -24.0337 -7.91519
upperneck -37.2799 -26.8822 39.6334
head -4.7259 -17.5743 14.8669
rclavicle 3.26007e-014 -1.43125e-014
rhumerus 4.01666 -28.6672 -66.614
rradius 46.7628
rwrist 5.89758
rhand -22.7745 34.4344
rfingers 7.12502
rthumb 3.66086 4.48612
lclavicle 3.26007e-014 -1.43125e-014
lhumerus -51.0887 -5.25635 112.238
lradius 25.6244
lwrist -17.6607
lhand 10.9525 21.6646
lfingers 7.12502
lthumb 36.0292 47.9739
rfemur -45.7672 -21.7576 5.85161
rtibia 101.703
rfoot -10.6271 -10.2555
rtoes -38.626
lfemur -28.9757 0.851258 -11.3448
ltibia 64.7221
lfoot -12.9639 -17.385
ltoes -38.1459
42
root -14.1852 14.0772 3.83568 -12.27 -44.2467 11.6827
lowerback 25.6146 -1.11954 -2.69215
upperback 7.61752 -2.14925 3.57387
thorax -5.50615 -1.20528 6.1276
lowerneck 10.3574 -22.7535 -6.8695
upperneck -40.8606 -24.3099 40.152
head -7.21116 -16.9007 17.0751
rclavicle -1.23246e-013 2.54444e-014
rhumerus 4.45104 -27.1194 -67.241
rradius 43.5467
rwrist 8.08638
rhand -23.0798 36.2195
rfingers 7.12502
rthumb 3.36599 6.26634
lclavicle -1.23246e-013 2.54444e-014
lhumerus -50.1617 -3.02913 108.962
lradius 25.4208
lwrist -20.7111
lhand 9.25491 23.5458
lfingers 7.12502
lthumb 34.4193 50.2354
rfemur -44.9304 -22.1382 3.34095
rtibia 102.513
rfoot -10.7066 -10.2622
rtoes -38.1803
lfemur -29.2396 2.48283 -13.2426
ltibia 63.362
lfoot -14.8691 -18.0079
ltoes -37.0765
